<svg xmlns="http://www.w3.org/2000/svg" width="500" viewBox="0 0 375 375" height="500" version="1.0"><defs><clipPath id="a"><path d="M116.863 82.594h141V224h-141zm0 0"/></clipPath><clipPath id="b"><path d="M143 127h82v105.594h-82zm0 0"/></clipPath><clipPath id="c"><path d="M143 151h65v81.594h-65zm0 0"/></clipPath><clipPath id="d"><path d="M143 170h31v62.594h-31zm0 0"/></clipPath></defs><g clip-path="url(#a)"><path fill="#563d37" d="M257.863 153.227a72.67 72.67 0 01-.086 3.464 72.683 72.683 0 01-.254 3.457 67.822 67.822 0 01-.425 3.442 67.899 67.899 0 01-.59 3.418 72.748 72.748 0 01-.758 3.383 75.356 75.356 0 01-.922 3.34 75.455 75.455 0 01-1.086 3.292 75.566 75.566 0 01-1.246 3.235 73.634 73.634 0 01-1.402 3.168 69.467 69.467 0 01-3.262 6.113 71.1 71.1 0 01-3.844 5.762 70.434 70.434 0 01-4.39 5.359 68.83 68.83 0 01-4.891 4.903 68.933 68.933 0 01-2.621 2.265c-.89.73-1.8 1.442-2.727 2.133a75.195 75.195 0 01-2.828 1.996c-.96.64-1.933 1.258-2.926 1.852a69.235 69.235 0 01-3.007 1.71 76.338 76.338 0 01-3.094 1.56c-1.043.491-2.098.96-3.16 1.405a73.46 73.46 0 01-3.23 1.246c-1.087.391-2.18.754-3.286 1.086a70.256 70.256 0 01-23.922 2.957 68.064 68.064 0 01-3.453-.253 72.312 72.312 0 01-6.844-1.016 70.279 70.279 0 01-6.71-1.688 65.93 65.93 0 01-3.286-1.086 71.458 71.458 0 01-3.226-1.246 76.343 76.343 0 01-3.164-1.406 73.712 73.712 0 01-3.09-1.558 67.124 67.124 0 01-3.012-1.711 70.964 70.964 0 01-2.926-1.852 75.195 75.195 0 01-2.828-1.996 76.197 76.197 0 01-2.726-2.133 68.933 68.933 0 01-2.621-2.266 68.977 68.977 0 01-2.504-2.39 68.94 68.94 0 01-2.387-2.512 65.606 65.606 0 01-2.262-2.625 72.133 72.133 0 01-4.12-5.566 69.348 69.348 0 01-3.555-5.945 69.535 69.535 0 01-2.962-6.266 75.563 75.563 0 01-1.246-3.235 70.477 70.477 0 01-1.082-3.293 70.409 70.409 0 01-.925-3.34 78.157 78.157 0 01-.758-3.382 72.633 72.633 0 01-1.016-6.86 72.682 72.682 0 01-.254-3.457 73.122 73.122 0 01-.086-3.464 72.16 72.16 0 01.34-6.922 72.633 72.633 0 011.016-6.86 69.59 69.59 0 011.683-6.722 70.477 70.477 0 011.082-3.293 76.972 76.972 0 011.246-3.235 69.534 69.534 0 012.96-6.266 69.348 69.348 0 013.556-5.945 71.1 71.1 0 011.992-2.836 75.26 75.26 0 012.13-2.73 65.62 65.62 0 012.26-2.625 65.88 65.88 0 012.388-2.512 68.977 68.977 0 012.504-2.39 68.933 68.933 0 012.62-2.266 77.598 77.598 0 012.727-2.133 75.195 75.195 0 012.828-1.996 75.618 75.618 0 012.926-1.855 67.051 67.051 0 013.012-1.707 65.305 65.305 0 013.09-1.559 67.183 67.183 0 013.164-1.406 71.458 71.458 0 016.511-2.336 75.191 75.191 0 013.336-.922 70.279 70.279 0 013.375-.762 72.31 72.31 0 016.844-1.015c1.149-.114 2.3-.2 3.453-.254a68.062 68.062 0 013.457-.086c1.153 0 2.309.027 3.461.086 1.153.054 2.301.14 3.45.254a72.31 72.31 0 016.844 1.016 70.28 70.28 0 013.374.76 68.796 68.796 0 016.621 2.012 68.883 68.883 0 016.39 2.652 69.155 69.155 0 016.102 3.266 75.468 75.468 0 012.926 1.856 75.195 75.195 0 012.828 1.996 76.197 76.197 0 012.727 2.133 68.933 68.933 0 012.621 2.266 72.464 72.464 0 012.508 2.39c.816.817 1.61 1.653 2.383 2.512.777.855 1.53 1.73 2.261 2.625a75.26 75.26 0 012.13 2.73 71.1 71.1 0 015.55 8.782 71.553 71.553 0 014.203 9.5c.387 1.09.75 2.187 1.086 3.293a71.638 71.638 0 011.68 6.723c.226 1.136.422 2.273.59 3.417a70.886 70.886 0 01.765 10.364zm0 0"/></g><path fill="#fef9ec" d="M256.152 153.227c0 1.128-.027 2.253-.082 3.382a69.48 69.48 0 01-.664 6.73 69.02 69.02 0 01-.574 3.333 73.22 73.22 0 01-.742 3.3 73.283 73.283 0 01-.899 3.262 71.738 71.738 0 01-1.058 3.211 75.116 75.116 0 01-1.215 3.157 75.195 75.195 0 01-1.371 3.093 72.611 72.611 0 01-1.516 3.02 70.312 70.312 0 01-1.664 2.945 74.783 74.783 0 01-1.808 2.856 67.678 67.678 0 01-1.946 2.765 64.99 64.99 0 01-2.074 2.668 68.703 68.703 0 01-6.98 7.344 72.425 72.425 0 01-2.555 2.21 68.57 68.57 0 01-2.664 2.079 67.517 67.517 0 01-8.55 5.426 70.252 70.252 0 01-3.017 1.523c-1.015.48-2.046.938-3.085 1.367-1.04.434-2.09.84-3.149 1.22a71.637 71.637 0 01-3.207 1.062 66.838 66.838 0 01-6.547 1.64 68.922 68.922 0 01-3.328.582c-1.113.164-2.23.301-3.352.414a69.311 69.311 0 01-16.835-.414 67.937 67.937 0 01-3.325-.582 68.042 68.042 0 01-6.55-1.64 71.637 71.637 0 01-3.208-1.063 65.461 65.461 0 01-3.148-1.219 67.887 67.887 0 01-3.086-1.367A70.253 70.253 0 01152 212.34a67.493 67.493 0 01-5.613-3.758 68.57 68.57 0 01-2.664-2.078 68.926 68.926 0 01-9.535-9.555 68.6 68.6 0 01-2.075-2.668 67.678 67.678 0 01-3.75-5.62 62.48 62.48 0 01-1.664-2.946 68.15 68.15 0 01-4.101-9.27 67.11 67.11 0 01-1.961-6.472 68.196 68.196 0 01-.739-3.301 64.552 64.552 0 01-.578-3.332 64.62 64.62 0 01-.414-3.36 74.796 74.796 0 01-.25-3.37 69.822 69.822 0 010-6.766c.059-1.125.14-2.25.25-3.371a64.62 64.62 0 01.414-3.36 63.83 63.83 0 01.578-3.332c.22-1.105.465-2.207.739-3.3a72.89 72.89 0 01.898-3.262 67.11 67.11 0 011.063-3.211 65.684 65.684 0 011.215-3.156 68.205 68.205 0 014.55-9.059 67.678 67.678 0 013.75-5.621 68.6 68.6 0 012.075-2.668 68.704 68.704 0 016.98-7.344 71.88 71.88 0 012.555-2.21 68.665 68.665 0 0111.214-7.505 70.253 70.253 0 013.016-1.523 72.612 72.612 0 013.086-1.371 69.783 69.783 0 016.356-2.278 68.085 68.085 0 016.55-1.644 72.6 72.6 0 013.325-.578 73.663 73.663 0 013.351-.414 69.31 69.31 0 013.367-.246 64.874 64.874 0 013.375-.086c1.125 0 2.25.027 3.375.086a69.31 69.31 0 013.367.246c1.122.113 2.239.25 3.352.414 1.113.168 2.223.36 3.328.578 1.102.223 2.2.469 3.293.742 1.094.274 2.176.574 3.254.902a69.783 69.783 0 016.355 2.277c1.04.434 2.07.891 3.086 1.372a70.252 70.252 0 015.954 3.191 67.424 67.424 0 015.613 3.754 68.57 68.57 0 015.219 4.293 68.925 68.925 0 016.98 7.344 64.99 64.99 0 012.074 2.668 68.05 68.05 0 011.946 2.766 74.2 74.2 0 011.808 2.855 71.02 71.02 0 011.664 2.945 70.263 70.263 0 012.887 6.114c.43 1.043.832 2.093 1.215 3.156.379 1.062.73 2.133 1.058 3.21a73.65 73.65 0 01.899 3.262 73.22 73.22 0 01.742 3.301 68.2 68.2 0 01.574 3.332 69.48 69.48 0 01.664 6.73c.055 1.13.082 2.255.082 3.384zm0 0"/><path fill="#fbc4a4" d="M252.734 153.227c0 1.07-.027 2.144-.078 3.214a67.531 67.531 0 01-.629 6.395 66.238 66.238 0 01-2.109 9.402 59.282 59.282 0 01-1.008 3.051 61.696 61.696 0 01-1.152 3 65.874 65.874 0 01-2.742 5.813 65.769 65.769 0 01-3.301 5.511 63.66 63.66 0 01-1.848 2.63 67.845 67.845 0 01-1.972 2.534 68.728 68.728 0 01-2.094 2.434 65.53 65.53 0 01-4.54 4.543 65.48 65.48 0 01-4.956 4.078 64.783 64.783 0 01-5.336 3.57 70.126 70.126 0 01-2.79 1.586c-.945.504-1.898.985-2.867 1.446a67.185 67.185 0 01-5.925 2.457 64.69 64.69 0 01-3.047 1.011 69.609 69.609 0 01-3.094.856 61.309 61.309 0 01-3.129.703 65.531 65.531 0 01-6.347.945 62.246 62.246 0 01-3.2.235 62.648 62.648 0 01-6.414 0 62.246 62.246 0 01-3.199-.235 66.804 66.804 0 01-3.184-.394 62.278 62.278 0 01-3.164-.551 62.262 62.262 0 01-3.129-.703 69.608 69.608 0 01-3.093-.856 64.69 64.69 0 01-3.047-1.011 64.729 64.729 0 01-2.992-1.157 67.624 67.624 0 01-2.934-1.3 72.878 72.878 0 01-2.867-1.446 67.444 67.444 0 01-5.5-3.305 68.894 68.894 0 01-2.625-1.851 65.48 65.48 0 01-4.957-4.078 65.414 65.414 0 01-2.324-2.215 62.07 62.07 0 01-2.211-2.328 68.84 68.84 0 01-2.098-2.434 67.846 67.846 0 01-1.973-2.535 67.656 67.656 0 01-3.566-5.344 75.586 75.586 0 01-1.582-2.796 65.653 65.653 0 01-7.402-37.293 66.217 66.217 0 01.941-6.36 61.41 61.41 0 01.703-3.136 64.938 64.938 0 011.863-6.152 65.875 65.875 0 013.895-8.809 75.585 75.585 0 011.582-2.797 67.58 67.58 0 013.566-5.344 64.78 64.78 0 016.282-7.297 65.415 65.415 0 012.324-2.215 61.994 61.994 0 012.43-2.101c.824-.68 1.667-1.34 2.527-1.977a61.12 61.12 0 012.625-1.851 67.442 67.442 0 015.5-3.305 67.86 67.86 0 012.867-1.445 67.624 67.624 0 015.926-2.461 64.678 64.678 0 016.14-1.863 62.262 62.262 0 013.13-.704c1.05-.21 2.105-.394 3.163-.55a66.804 66.804 0 013.184-.395 62.246 62.246 0 013.2-.234 62.761 62.761 0 016.413 0c1.07.05 2.137.128 3.2.234a66.79 66.79 0 013.187.394c1.055.157 2.11.34 3.16.551a64.678 64.678 0 019.27 2.566 67.635 67.635 0 015.925 2.462c.97.457 1.922.94 2.868 1.445a65.578 65.578 0 012.789 1.586 64.782 64.782 0 015.336 3.57c.86.637 1.703 1.297 2.527 1.977.828.68 1.637 1.379 2.43 2.101a65.53 65.53 0 014.54 4.543 65.395 65.395 0 015.913 7.598 65.768 65.768 0 014.742 8.383 65.875 65.875 0 013.461 8.992c.312 1.023.598 2.058.855 3.097a66.238 66.238 0 011.254 6.305 67.531 67.531 0 01.629 6.395c.051 1.07.078 2.144.078 3.215zm0 0"/><path fill="#563d37" d="M249.125 153.227c0 2.027-.102 4.046-.297 6.066a62.306 62.306 0 01-2.363 11.894 61.432 61.432 0 01-2.043 5.72 61.671 61.671 0 01-5.707 10.698 62.832 62.832 0 01-3.61 4.875 61.643 61.643 0 01-8.563 8.578 61.438 61.438 0 01-10.066 6.738 62.044 62.044 0 01-5.476 2.599 63.225 63.225 0 01-5.707 2.046 62.468 62.468 0 01-5.879 1.473 59.807 59.807 0 01-5.996.89 61.247 61.247 0 01-12.109.001 59.564 59.564 0 01-5.993-.89 61.87 61.87 0 01-5.879-1.474 61.595 61.595 0 01-11.188-4.645 61.438 61.438 0 01-10.065-6.737 61.643 61.643 0 01-8.563-8.579 62.832 62.832 0 01-3.61-4.875 61.671 61.671 0 01-5.707-10.7 62.102 62.102 0 01-3.516-11.61 61.098 61.098 0 01-.886-6.002 61.803 61.803 0 01-.297-6.066c0-2.028.098-4.047.297-6.067.196-2.015.493-4.02.887-6.004a62.102 62.102 0 013.516-11.61 61.671 61.671 0 015.707-10.698 62.831 62.831 0 013.61-4.875 61.643 61.643 0 018.563-8.578 61.807 61.807 0 0110.065-6.739 60.524 60.524 0 015.48-2.597 61.234 61.234 0 0111.586-3.52c1.98-.398 3.98-.695 5.993-.894a62.705 62.705 0 016.054-.297 60.967 60.967 0 0112.05 1.191c1.982.395 3.942.887 5.88 1.473A62.05 62.05 0 01211 96.059a60.957 60.957 0 015.477 2.597 61.438 61.438 0 0110.066 6.739 61.643 61.643 0 018.562 8.578 61.6 61.6 0 019.316 15.574 62.102 62.102 0 014.703 23.68zm0 0"/><g clip-path="url(#b)"><path fill="#fddbbd" d="M144.734 230.191c2.301 5.204 15.922.399 23.914-.058 6.133-.356 22.66 4.265 38.004-2.332 10.188-4.375 11.493-11.219 10.243-12.828-2.653-3.41-11.407.297-21.149-4.075-2.512-1.128-4.32-3.324-4.664-6.695-.617-6.101 2.55-14.328 8.043-15.43 6.504 3.864 13.258 5.809 15.969 3.399 2.308-2.055.328-5.277 1.031-7.086.223-.578 1.027-1.848 1.902-2.02 2.614-.507 1.817-2.925 1.399-3.09 2.074-1.746 1.582-3.37.847-3.585-1.875-2.805 4.145-2.98 3.762-5.582-.406-2.778-4.422-4.934-4.719-8.72-.41-5.21 2.852-9.73 2.934-14.91.11-7.132-3.176-16.843-12.195-19.546-10.16-3.043-23.575 17.156-36.297 23.851 2.129 21.434-8.781 41.457-15.176 50.938-4.977 7.379-18.07 18.207-13.848 27.77zm0 0" fill-rule="evenodd"/></g><path fill="#fec8ad" d="M205.219 147.66c-3.656-1.984-17.414 3.656-21.403 4.274-.254 2.78-6.77 8.57-6.214 11.675.87 4.895 4.808 4.348 6.332 4.391.863 5.73 2.457 11.152 6.57 14.977 3.398 3.156 8.484 4.597 12.652 6.5-5.695-4.344-13.207-11.02-12.031-24.426 5.996-1.25 15.477-3.582 14.094-17.39zm0 0" fill-rule="evenodd"/><g clip-path="url(#c)"><path fill="#fdc0a4" d="M177.996 166.43c7.219 16.718 16.902 24.55 15.52 26.863-1.883 3.16-2.79 7.39-2.434 10.91.344 3.371 2.152 5.567 4.664 6.695 4.094 1.836 8.012 2.247 11.375 2.36-1.98.437-13.508 3.12-18.93-2.903-5.507-6.125-6.656-12.507-7.105-20.203-.25-4.332-.406-9.562-1.922-13.648-2.855 18.855-14.754 35.805-12.734 53.84-8.075 1.011-19.598 4.594-21.696-.153-4.222-9.562 8.871-20.39 13.848-27.77 6.39-9.472 17.29-29.476 15.184-50.894l.047-.07c4.55-2.406-.364 19.145 4.183 14.973zm0 0" fill-rule="evenodd"/></g><g clip-path="url(#d)"><path fill="#f8ecdf" d="M171.105 176.195a147.41 147.41 0 002.305-5.402c-4.453 18.523-10.3 27.234-20.21 42.664-3.259 5.074-6.067 12.672-4.493 19.04-1.922-.231-3.355-.907-3.973-2.306-4.222-9.562 8.871-20.39 13.848-27.77 3.809-5.644 9.219-15.026 12.523-26.226zm0 0" fill-rule="evenodd"/></g><path fill="#f8ecdf" d="M179.2 175.828c-1.266 8.477-4.055 17.274-7.505 25.262 4.477-2.293 7.907-6.38 9.766-11.02-.117-3.304-1-9.55-2.262-14.242zm0 0" fill-rule="evenodd"/><path fill="#f9bbac" d="M220.254 176.363c-2.965.02-5.059 4.028-6.8 3.508 1.273 2.227 3.827 3.453 4.98 3.094.015-.004.03-.012.05-.016 2.059-.687 1.332-2.82.942-2.972 2.074-1.747 1.582-3.372.847-3.586-.003-.008-.011-.016-.02-.028zm0 0" fill-rule="evenodd"/><path fill="#e27f78" d="M213.477 179.875c.789.426 1.609.316 2.441.008 1.082-.406 1.988-1.113 3.18-1.219.441-.039.933 0 1.355.176-.23.363-.566.746-1.027 1.137.004 0 .004 0 .008.003-.32-.011-.649-.058-.954-.066-.917-.02-1.808.2-2.714.324-.774.11-1.559.11-2.227-.308 1.305 1.14 3.024 2.226 4.781 2.32.418.023.887-.004 1.305-.14-.207.343-.566.648-1.14.84-.02.003-.036.01-.051.015-1.153.36-3.707-.867-4.98-3.094.007 0 .015.004.023.004zm0 0" fill-rule="evenodd"/><path fill="#c67758" d="M191.012 202.273c.125-5.757 3.16-12.46 8.058-13.488-4.246-2.258-9.703-4.308-12.324-8.316-2.297-3.516-2.695-8.563-3.023-12.633-.996.117-1.59.207-2.59-.063-3.309-.882-5.125-4.441-4.973-7.656-1.14 4.301 1.832 7.48 3.508 10.727 1.613 3.117 2.039 6.648 3.473 9.824 1.73 3.828 4.304 7.121 5.527 11.207.656 2.195 1.535 7.031 2.344 10.398zm0 0" fill-rule="evenodd"/><path fill="#924121" d="M177.988 165.723a161.552 161.552 0 017.102 11.066c-.883-2.902-1.14-6.16-1.367-8.953-.996.117-1.59.207-2.59-.063-1.281-.34-2.336-1.085-3.145-2.05zm0 0" fill-rule="evenodd"/><path fill="#f8ecdf" d="M179.32 162.434c-.238-3.047.555-6.164 1.508-9.028 4.844-14.535 19.777-27.062 35.363-27.394 3.297 9.933-.757 20.273-10.687 23.86-.074 1.75-.215 3.519-.711 5.21-3.445 11.656-17.176 4.496-25.473 7.352zm0 0" fill-rule="evenodd"/><path fill="#f8b99d" d="M213.984 161.016c1.758-1.676 2.82-5.961-.632-6.328-2.457-.258-4.5 1.796-7.13 1.355 1.29 2.918 4.212 5.785 7.762 4.973zm0 0" fill-rule="evenodd"/><path fill="#924121" d="M204.688 152.477c.761-1.387 4.46-5.758 10.742-4.41 4.566.976 5.023 5.562 3.468 6.484-.293-1.094-1.726-4.074-4.253-5.035-3.532-1.34-7.415.511-9.958 2.96zm13.222 21.543c.555-.88 2.98-2.13 3.184-1.532.203.594-1.489.227-3.184 1.532zm.371 6.113c.27.05.824.14 1.07-.035.141-.098.079-.274-.027-.375-.16-.149-.406-.172-.613-.164-1.36.066-2.7.734-4.242.625-.324-.028-.73-.192-.895-.368-.285-.296-.574-.414-.695-.238-.176.242.851 1.043 2.98.746.782-.11 1.633-.293 2.422-.191zm-1.093-20.262c-1.981.629-3.473 2.3-5.704 2.055a3.848 3.848 0 01-1.043-.278 5.055 5.055 0 01-1.277-.8c-.492-.403-.898-.899-1.262-1.422a8.655 8.655 0 01-1.078-2.149c.387.578.817 1.118 1.36 1.555 1.668 1.352 3.675 1.703 5.761 1.461 1.09-.129 2.145-.414 3.243-.422zm-8.79-4.016c.786-.277 2.657-1.632 4.633-1.527 1.317.07 2.762 1.082 2.563 2.512a2.213 2.213 0 00-.586-1.008 2.669 2.669 0 00-.746-.52c-2.012-.94-3.86.458-5.864.543zm-13.16 57.848c-6.07-.621-10.402-5.09-12.144-10.754-2.492-8.101-1.95-17.71-3.559-26.18 3.164 11.387 1.137 32.836 15.703 36.934zm0 0" fill-rule="evenodd"/><path fill="#e5bbb2" d="M176.652 170.473c-2.718 11.386-13.601 9.414-16.718 8.597-8.141-2.14-15.504-9.8-13.996-21.996-5.247 2.899-12.442-1.418-13.477-7.965-.957-6.09 3.64-13.347 12.21-13.113-12.241-7.953-1.382-27.363 12.763-19.586-2.356-5.476 2.976-12.023 8.566-12.992 5.605-.973 12.504 2.324 12.664 9.555 2.996-5.266 14.309-10.973 21.344-8.102 17.383-2.371 21.972 12.211 18.535 16.188 7.035-3.657 15.379 1.054 17.543 5.265-6.274-5.535-14.64-5.316-19.457-2.289 9.98-4.43 23.101 1.406 24.82 12.617-3.172-10.011-16.828-15.863-24.55-10.77 16.238-5.862 26.124 9.895 24.14 19.286-.133-3.75-3.14-15.977-14.45-18.715 14.56 5.813 15.575 23.84 10.802 32.402 2.59-8.09 1.5-15.062-.774-20.46-4.851-11.547-14.324-11.993-17.547-11.22 3.41-.343 7.016.56 9.914 2.555 12.864 8.856 8.95 32.91-6.359 35.524 7.605-2.711 13.473-14.86 9.73-23.75-2.468-5.852-8.765-9.117-14.613-10.844 8.875 4.676 11.594 15.938 5.977 25.34 5.105-12.2-2.031-21.215-9.938-24.379 1.106 7.352-2.933 14.336-10.308 17.293-.918 22.066-20.293 6.043-26.82 21.559zm0 0" fill-rule="evenodd"/><path fill="#dfaea4" d="M175.14 132.04c4.508-1.645 7.407-5.974 11.524-8.31 8.543-4.847 18.324-1.402 23.48 6.438 4.313-11.086-5.66-18.883-16.234-15.711-9.14 2.738-12.648 11.242-18.77 17.582zm0 0" fill-rule="evenodd"/><path fill="#f8ecdf" d="M178.43 110.965c.136.629.218 1.3.234 2.008 2.996-5.266 14.309-10.973 21.344-8.102-9.149-.156-14.578 2.824-19.883 8.313-3.215 3.324-6.535 10.004-11.242 11.144-8.102 1.961-12.45-10.324-4.274-12.55-.738.824-1.355 1.745-1.691 2.808-1 3.168 2.086 6.504 5.383 5.992 6.34-.984 7.39-9.098 2.914-13.8 3.668.577 5.613 3.847 6.015 6.632.348-.762.747-1.629 1.2-2.445zm19.383 39.168c6.925-4.88 12.3-14.035 5.347-20.04-1.984-1.714-5.254-2.808-7.86-2.964-12.94-.781-22.198 15.195-34.566 11.918 4.434 1.969 7.356 2.633 12.098 1.172 5.695-1.762 10.785-6.64 16.977-6.742 10.617-.172 12.586 10.765 8.004 16.656zm0 0" fill-rule="evenodd"/><path fill="#f8ecdf" d="M155.816 126.895c.836-3.762-3.613-6.934-6.59-3.81-3.16 3.317-1.585 7.415 3.547 8.567 4.415.993 6.77-4.316 7.614-8.566 7.62 13.586 16.933-3.305 26.508-11.176 3.898-3.207 11.5-4.18 16.035-1.328-16.035-3.523-18.317 11.496-26.91 20.09-14.75 14.746-34.368 5.894-31.57-5.254.94-3.758 5.023-7.121 9.741-5.637 3.754 1.18 3.059 5.719 1.625 7.114zm0 0" fill-rule="evenodd"/><path fill="#f9bcb3" d="M164.824 161.605c4.774 2.633 6.817-2.37 9.278-5.52 1.554-1.991 3.68-3.573 6.12-4.28 7.145-2.067 14.735 6.523 20.548-.723-6.247 4.73-9.86-2.254-14.133-5.898-3.121-2.664-7.219-3.5-11.192-2.664-5.12 1.074-8.922 5.617-9.441 10.773-.27 2.648.676 6.078-1.18 8.312zm0 0" fill-rule="evenodd"/><path fill="#f9b89e" d="M169.383 162.473c-4.535 1.336-7.461-4.422-8.977-8.164-3.219-7.942-6.492-15.329-14.347-16.883-6.918-1.375-14.164 5.515-11.465 12.574 1.242 3.242 6.27 5.598 9.265 1.672-5.8 2.078-8.933-6.508-1.718-8.277 2.464-.606 5.543 1.347 7.425 6.82 1.454 4.222 2.914 8.7 6.196 11.855 3.84 3.692 9.68 4.493 13.62.403zm0 0" fill-rule="evenodd"/><path fill="#f8ecdf" d="M199.953 152.66c-5.914 8.262-12.082 1.985-19.601 3.945-3.317.868-5.582 4.422-8.122 6.391-10.699 8.309-18.417 4.215-21.98-3.043-1.895-3.867-.691-9.133-2.21-12.797 3.226 5.93 4.081 16.176 13.991 18.016 8.38 1.55 10.59-11.504 18.633-13.543 6.461-1.64 13.05 5.488 19.207 1.094" fill-rule="evenodd"/><path fill="#fcae95" d="M182.723 161.793c-8.52 1.855-9.88 9.437-14.793 11.055-7.844 2.578-15.97-1.348-18.887-8.926-1.164-3.024-1.309-5.004-1.04-9.04-2.769 7.727 3.09 24.161 19.423 23.044 7.254-.496 7.527-13.45 15.297-16.133zm0 0" fill-rule="evenodd"/><path fill="#df9b92" d="M175.566 140.074c2.73.899 5.438-.199 8.125-.719 2.711-.523 5.29-.316 7.782.97.992.51 1.836 1.202 2.59 2.023.886.968 1.636 2.101 2.136 3.32.633 1.535.942 3.039 1.016 4.695.851-1.66 1.539-3.543 1.437-5.441-.312-5.719-5.593-9.777-11.086-9.477-4.261.23-7.98 3.489-12 4.63zm0 0" fill-rule="evenodd"/><path fill="#d19072" d="M162.762 164.652c-4.739-2.293-5-10.843-5.446-13.699-.457-2.887-3.449-13.324-13.398-13.129-5.184.102-8.816 3.735-9.383 7.785-1.156 8.278 6.942 12.145 11.43 9.004-5.336 4.727-12.985-.941-12.528-8.09.344-5.335 5.204-9.664 10.547-9.617 6.766.063 10.23 3.047 14.805 12.547 3.496 7.254 5.238 11.098 7.246 12.192 1.34.73 2.485.48 3.34.003 2.203-2.593 5.852-10.093 12.68-10.714 6.273-.575 13.21 6.515 18.418.601-3.25 5.211-9.34 2.125-13.668.867-11.832-3.437-14.11 10.922-20.809 14.36-3.52 1.804-8.082 1.418-11.23-.633-2.399-1.563-4.996-4.664-5.223-8.36 2.758 7.56 10.43 11.38 16.988 7.422-10.281 3.621-15.851-7.25-17.554-15.632.484 4.101-1.407 8.03.082 12.379 3.566 10.43 15.504 9.292 20.562 6.343-6.465 5.676-17.582 3.168-21.062-4.125 1.261 6 6.78 9.332 12.57 10.164 10.297 1.485 13.383-5.84 16.309-9.129 1.308-1.472 3.015-2.937 4.953-3.484-1.973.402-4.2-.035-6.137.563-2.902.898-4.973 4.363-4.149 7.437-1.816-1.887-.937-5.187 1.184-6.855 3.125-2.465 8.809-2.211 11.508-2.192 4.422.035 7.406.211 11.969-2.922-4.786 5.125-13.106 3.696-15.844 5.371-6.418 3.938-5.344 14.754-14.817 15.375-5.703.371-17.867-5.62-19.398-16.425-.664-4.684 2.988-11.25.02-15.59-2.075-3.035-5.063-2.887-6.762-1.422-3.617 3.117.648 8.668 3.344 5.719.851-.93 0-2.598-1.63-2.606 1.821-1.488 4.11.57 3.087 2.64-.637 1.286-2.399 2.563-4.836 1.27-2.7-1.43-3.434-5.52-.89-7.843 3.183-2.915 7.636-1.086 9.374 1.636 1.656 2.594 2.356 6.547 3.156 8.614.957 2.464 2.067 4.402 3.262 5.894-.523-1.055-.941-2.246-1.3-3.496-1.126-3.918-1.669-8.402-3.634-11.793 2.836 2.961 3.258 7.957 4.754 12.398.828 2.465 2.106 4.766 3.95 6.07v-.003c-2.399-2.383-2.672-6.57-3.262-9.356-1.399-6.62-6.59-15.699-14.883-13.625 5.656-2.832 11.11 2.305 13.3 6.11 3.825 6.637 2.528 14.414 6.49 17.355.222.168.421.301.612.41a8.63 8.63 0 001.903.211zm11.316 6.489c-.723.87-2.707 2.945-5.941 4.011-3.235 1.067-7.719 1.13-13.438-2.02 14.653 10.317 18.078-.066 19.38-1.991zm25.242-20.59c1.914-2.196 4.653-2.723 6.797-4.34 5.254-3.953 6.692-10.25 5.73-15.41 6.454-.895 12.313 5.972 13.743 11.656.406 1.617.492 3.363.43 5.02 1.125-6.024-2.903-14.086-8.602-16.57 2.789-.259 5.781 1.124 8.094 2.53 3.75 2.282 6.851 5.836 7.984 10.157.914 3.472.379 7.12-.719 10.48-1.566 4.785-4.316 9.422-9.14 11.453 6.886-1.64 10.761-8.898 12.02-15.332.257-1.308.546-2.636.573-3.976a24.543 24.543 0 00-.46-5.211c-.43-2.219-.973-4.461-2.192-6.399-3.598-5.695-10.332-7.359-16.629-7.129 3.563-1.539 7.863-.53 11.192 1.118 10.609 5.261 12.683 19.379 9.207 29.734 1.05-1.906 1.547-3.91 1.968-6.035 1.454-7.332-.343-15.8-5.71-21.207-2.891-2.91-6.844-4.738-10.883-5.266 2.98-.023 5.8 1.11 8.297 2.668 6.242 3.899 10.367 10.992 9.296 18.492 1.301-5.652-1.035-12.476-5.113-16.562-3.172-3.188-7.824-5.34-12.34-5.57-2.726-.137-5.433.648-7.879 1.796 1.489-1.304 3.446-2.046 5.332-2.543 1.887-.496 3.797-.886 5.762-.703 6.926.645 12.899 6.153 15.04 12.653-.973-4.188-3.391-7.887-6.973-10.34-5.348-3.668-12.954-3.957-18.586-.848 6.046-4.832 14.785-3.816 20.32 1.387-1.2-1.953-3.445-3.207-5.484-4.078-2.008-.856-4.176-1.403-6.372-1.387-5.402.031-11.039 4.02-13.875 8.625 1.606 3.473 1.454 10.277-3.12 15.05-2.044 2.138-6.145 3.313-7.708 6.087zm-31.91 12.765c-2.765-.16-5.652-3.703-9.062-12.343.793 10.32 4.136 12.836 6.16 13.504a8.957 8.957 0 002.902-1.16zm-.394-2.351c.914-.113 1.68-.758 2.226-1.457 1.149-1.453 1.727-3.363 2.645-4.965 2.246-3.91 5.66-5.969 9.242-5.297-4.133-.367-7.883 3.086-9.328 6.73-.16.403-.375.782-.563 1.172-.152.317-.3.637-.465.954-.683 1.308-1.976 3.316-3.757 2.863zm7.87-.18c1.403-2.437 5.481-4.383 11.786-3.426 5.277.805 12.117.59 14.734-4.273-4.125 5.434-12.726 2.98-17.87 2.883-3.466-.063-7.5 1.215-8.65 4.816zm1.036-.394a12.688 12.688 0 014.137-1.696c1.476-.32 3.004-.375 4.449-.09-3.028-1.171-6.313-.566-8.586 1.786zm-7.992-.868c-3.953-3.992 3.382-14.5 8.965-14.21-1.918.152-3.891 1.449-5.32 2.898-2.864 2.902-4.602 7.043-3.645 11.312zm48.203-29.609c2.617-.703 9.922-.496 15.234 5.75 4.824 5.672 5.422 16.008.508 22.145 3.45-5.637 3.637-13.543.563-18.961-3.286-5.797-9.465-8.993-16.305-8.934zm-51.203 27.367c-1.844-2.11-2.735-5.625-1.793-8.254.668-1.87 2.164-3.406 3.894-4.324-4.054 2.918-4.25 8.43-2.101 12.578zm4.382-.035c1.668-2.242 1.59-4.996 3.446-7.113 4.402-5.02 12.695-4.582 17.3.512-1.234-1.278-9.472-6.157-15.734-.547-2.133 1.906-2.664 5.082-5.012 7.148zm-3.468-1.629c-.254-4.5 4.113-13.191 12.547-12.894 10.761.379 11.937 9.886 16.925 10.039-5.03-.914-5.488-10.645-17.015-11.121-9.621-.399-14.012 10.175-12.457 13.976zm-20.578-3.84c-.793 1.899-3.485 2.825-5.457 2.23-1.692-.507-3.082-1.984-3.727-3.39-1.508-3.293-.105-7.375 3.258-9.383-1.215 1.16-3.887 4.258-2.711 7.91 1.512 4.704 6.629 5.52 8.637 2.633zm40.152-11.996c3.789.399 7.332 2.367 9.113 5.844.864 1.68 1.098 3.54 1.703 5.305-.05-1.606.04-3.125-.449-4.684-.812-2.578-2.847-4.832-5.375-5.8-1.531-.587-3.36-.696-4.992-.665zm-21.719.133c2.496 1.457 5.645 1.613 8.473 1.035 5.402-1.105 12.101-8.586 20.012-6.793 2.523.57 6.867 3.07 7.597 7.746.367 2.356-.097 5.57-2.652 8.856 6.191-6.117 3.625-16.43-5.063-17.875-8.18-1.363-12.84 4.781-19.957 7.129-2.675.883-5.707.496-8.41-.098zm-17.969 10.484c.586-1.054.41-2.953-.39-4.027-1.113-1.5-3.586-1.805-4.824-.098-.762 1.043-.368 2.63.808 3.122-.96-1.055-.383-2.84.985-3.208 2.332-.625 3.879 2.196 3.421 4.211zm35.676-13.113c.895.16 1.86-.101 2.723-.289 1.46-.316 2.887-.71 4.394-.691.883.011 1.774.12 2.618.39a9.149 9.149 0 012.078.953c3.297 2.04 4.476 5.926 4.441 9.625.774-5.394-2.89-11.39-8.68-12-2.804-.296-5.16.715-7.574 2.012zm-9.953.242c3.399-.722 6.918-3.562 9.207-5.14 2.664-1.836 6.719-3.535 9.903-4.207 5.37-1.13 12.273.308 14.66 5.297.605 1.27 2.777 6.18-3.836 13.363 6.39-5.535 5.972-11.215 4.562-13.95-2.11-4.1-7.422-6.675-12.586-6.257-4.23.34-8.718 1.89-12.511 4.394-.344.227-.684.465-1.024.711-2.758 2-5.281 4.457-8.375 5.79zm-7.582 7.559c-1.027 1.203-2.61 1.918-4.172 1.336a3.438 3.438 0 01-.86-.48c-.573-.438-1.01-1.047-1.335-1.688 1.664 1.578 4.32 1.758 6.367.832zm6.621-3.137c-2.554 1.586-5.64 2.383-8.574 2.14-2.93-.241-5.703-1.53-7.625-4.112 4.539 3.597 10.875 3.656 16.2 1.972zm14.395-10.738c5.195-1.383 10.41-1.223 13.957.746 3.543 1.969 5.418 5.746 3.926 11.602 5.167-13.512-10.278-16.95-17.883-12.348zm-25.907-11.606c-1.406-3.058-1.25-6.878.887-10.105 6.48-9.79 19.801-3.898 17.621 6.188 5.457-7.262 13.52-11.211 22-9.926 3.887-.649 7.52-.653 11.13 1.27 6.37 3.39 8.355 10.64 3.581 16.284 1.016-3.925-.664-7.765-3.379-10.593-4.222-4.403-10.007-6.578-16.097-6.047-5.883.515-11.426 3.77-15.395 8.054-1.887 2.036-6.734 10.942-12.508 10.368-2.941-.293-5.25-1.703-6.757-3.688a9.03 9.03 0 01.703 4.653c-.758 6.953-9.516 9.011-12.75 3.648-1.72-2.852-.676-7.106 3.164-8.164-3.078 1.836-3.762 5.726-1.82 8.094.449.547.96.949 1.503 1.234-.996-.93-1.59-2.266-1.433-3.71.164-1.505 1.097-2.895 2.304-3.763-.914.996-1.722 2.192-1.797 3.594-.167 3.082 2.579 4.637 4.836 4.106 3.325-1.063 6.176-4.946 4.383-8.993-2.047-4.613-8.43-5.742-12.254-3.066-5.765 4.031-6.007 10.707-.48 15.059 1.648 1.293 3.406 2.324 5.426 2.921 8.183 2.438 16.277-.199 21.27-4.207 4.335-3.484 8.355-11.62 13.566-15.754 4.601-3.644 11.316-5.175 16.629-3.14 2.57.984 5.183 2.86 6.054 5.535-7.844-10.508-21.328-4.148-27.058 3.867 4.695-4.172 11.433-5.914 17.406-3.597-6.344-1.688-12.445-.059-17.32 4.308-.872.781-1.598 1.684-2.313 2.59-.91 1.297-1.863 2.547-2.922 3.727 1.8-.899 4.008-3.165 4.918-4.004 2.145-1.985 5.23-3.657 8.047-4.5 6.902-2.067 16.258.449 19.027 7.918.895 2.41 1.016 4.425.395 6.84.16-2.747-.219-5.196-1.535-7.645-3.04-5.656-10.489-7.781-16.39-6.352-2.829.688-5.18 2.102-6.966 3.418.356-.18.715-.351 1.074-.52 8.036-3.734 17.79-3.019 21.368 4.22-3.625-5.215-11.407-6.192-17.032-4.723-10.011 2.617-23.3 20.246-40.945 12.746-14.574-6.191-7.629-22.621 3.129-21.668 2.89.258 5.23 1.594 6.73 3.523zm10.157 12.122c-3.86 1.316-6.309 4.585-13.938 4.609-4.512.016-7.894-2.395-9.558-4.649-3.211-4.355-.86-9.027 1.21-9.98-5.874 6.262 1.477 13.25 8.215 13.3 7.004.052 7.883-2.523 14.07-3.28zm2.25-2.18c6.3-2.574 7.047-11.277 14.59-16.695 4.87-3.504 9.886-3.782 15.585-3.125-9.007-3.52-17.562 1.59-22.671 9.226-2.61 3.899-3.313 7.992-7.504 10.594zm-21.957-9.211c2.468-1.055 5.988-.387 6.894 2.402.172.532.238 1.086.219 1.645-.066 1.86-1.27 3.394-2.613 4.57a6.105 6.105 0 002.242-1.816 5.548 5.548 0 001.004-2.145c.144-.64.183-1.3.074-1.953-.64-3.797-5.027-4.977-7.82-2.703zm25.273 2.84c-.75 2.152-4.422 6.164-8.84 5.445-2.093-.34-3.761-1.726-4.148-3.656 3.633 4.87 10.043 2.297 12.988-1.79zm27.383-11.332c1.785-.106 5.223.64 7.445 3.367 3.016 3.7 3.477 9.39.485 13.125.816-2.016 1.39-4.09 1.175-6.29-.492-5.062-4.191-9.253-9.105-10.202zm-26.211 16.379c1.43-2.883 3.543-5.914 5.742-8.27 2.235-2.39 4.54-4.094 7.324-5.777-6.144 2.605-10.785 7.785-13.066 14.047zm35.238-12.86c1.524 2.621 2.305 5.86 1.567 8.852-.239.965-.668 1.828-1.153 2.687 2.04-2.422 2.688-5.707 1.504-8.695-.453-1.137-1.129-1.926-1.918-2.844zm-21.906 3.04c5.05-3.903 13.152-4.446 17.625.874 2.043 2.43 2.2 4.989 1.95 6.461-.16-1.933-1.052-4.203-2.653-5.949-4.457-4.848-11.512-3.793-16.922-1.387zm-12.867-1.223c-2.024 2.644-5.899 8.675-11.211 6.73-7.871-2.879-4.734-11.89-.79-14.097 3.173-1.77 7.845.554 8.184 4.078.375 3.914-2.738 6.484-5.668 5.87-5.93-1.245-4.113-9.706 1.543-8.187-.48-.808-1.785-.902-2.703-.71-2.132.452-4.078 2.991-3.363 5.792 1.332 5.223 8.36 5.836 10.598.496 1.672-3.992-.996-8.16-4.887-8.789-3.465-.558-6.406.68-8.781 3.813 4.086-11.258 19.902-8.156 17.078 5.004zm41.125-3.965c.508 2.015.504 3.847.078 5.512-.426 1.664-1.277 3.16-2.469 4.515 3.16-2.039 4.313-6.41 2.39-10.027zm-45.809-4.149c2.48 1.141 3.68 3.899 3.461 6.543-.207 2.52-1.73 4.899-3.734 5.856 1.152-1.04 2.097-2.387 2.57-3.871.934-2.91.215-6.61-2.297-8.528zm34.024-1.273c2.683.437 5.476 1.973 7.379 4.164 1.906 2.191 2.921 5.04 2.062 8.106-.418-6.008-3.95-10.043-9.441-12.27zm-45.59 12.187c-1.309-2.136-1.45-4.671-.563-6.777.887-2.105 2.797-3.785 5.594-4.215-4.363 1.563-6.766 6.461-5.031 10.992zm42.3-13.546c2.989-.621 6.18.004 8.735 1.57 2.555 1.566 4.477 4.074 4.934 7.223-2-6.188-8.356-8.813-13.668-8.793zm0 0" fill-rule="evenodd"/><path fill="#f8ecdf" d="M182.79 208.14c7.077 11.305 17.48 11.493 25.046 11.72 3.164.093 9.535-1.497 9.129-4.274-.39-2.672-9.418-1.746-14.11-1.352-6.03.508-11.207 1.133-20.066-6.093zm.948-40.105c.325 4.035.75 8.977 3.008 12.434 2.621 4.008 8.078 6.058 12.324 8.316l.055-.012c6.504 3.864 13.258 5.809 15.969 3.399a3.267 3.267 0 001.031-1.7c-2.398 3.29-8.484.954-11.52-.343-.878-.371-1.734-.785-2.601-1.188-4.688-2.171-11.89-5.261-14.82-9.699-2.641-4.004-2.625-9.445-3.364-14.316-.054.949-.086 2-.082 3.11zm14.399 21.024l-.02.004-.035.015c.02-.008.035-.016.055-.02zm.039-.016l-.024.008.04-.016zm.062-.023l-.023.007zm.059-.02l-.024.008zm.039-.012h-.008l.012-.004.008-.004zm.062-.023l-.015.008.012-.004zm.059-.02l-.016.008zm.055-.015l-.012.004h.004zm.05-.016l-.007.004.004-.004zm.06-.016l-.013.004.008-.004zm.058-.02l-.012.005h.004zm.05-.01h-.003zm.06-.016l-.009.003.004-.003zm.054-.016l-.008.004h.008zm.058-.012h-.004zm.114-.027h-.004zm.03-.004h-.01zm0 0" fill-rule="evenodd"/><path d="M146.681 273.297c0-.555-.136-1.031-.406-1.402a2.042 2.042 0 00-1.101-.754c.27-.117.5-.324.675-.637a2.19 2.19 0 00.184-.43c.047-.148.07-.359.07-.625 0-.254-.07-.523-.187-.777-.348-.707-1.102-1.066-2.246-1.066h-2.133v7.882h2.41c.8 0 1.438-.175 1.922-.543.246-.187.441-.43.594-.73.136-.293.218-.594.218-.918zm-1.39-3.719c0 .426-.13.739-.383.95-.254.206-.59.312-1.008.312h-1.555v-2.457h1.325c1.078 0 1.62.406 1.62 1.195zm.578 3.559c0 .472-.16.855-.484 1.144-.313.293-.72.43-1.208.43h-1.832v-3.059h1.961c.407 0 .766.137 1.079.418.136.125.253.278.347.45.094.187.137.382.137.617zm8.159 2.351v-.754h-3.87v-2.804h3.757v-.766h-3.758v-2.805h3.871v-.753h-4.68v7.882zm4.58-2.898l1.437-3.629 1.426 3.629zm4.89 2.898l-3.453-8.425-3.465 8.425h.88l.847-2.144h3.465l.847 2.144zm8.255-2.609v-5.273h-.812v5.39c0 .324-.059.59-.176.813-.336.648-.985.972-1.945.972-.625 0-1.125-.14-1.497-.418-.43-.312-.636-.765-.636-1.367v-5.39h-.813v5.273c0 .86.278 1.531.836 2.02.52.46 1.227.695 2.11.695.867 0 1.562-.235 2.097-.695.555-.489.836-1.16.836-2.02zm2.488-4.543h1.914v7.129h.813v-7.129h1.91v-.754h-4.637zm10.352 3.441l2.98-4.171h-1.03l-2.356 3.375-2.352-3.375h-1.043l2.988 4.183v3.7h.813zm12.4 0c1.023.247 1.718.512 2.09.813.253.21.382.477.382.8 0 .325-.07.59-.21.778-.348.484-.973.73-1.856.73-1.227 0-1.922-.417-2.074-1.253h-.95c.278 1.332 1.286 1.996 3.024 1.996.777 0 1.426-.164 1.95-.512.624-.406.948-1.008.948-1.797 0-.648-.254-1.148-.765-1.496-.36-.254-.938-.484-1.739-.695-.808-.207-1.332-.383-1.574-.508-.535-.27-.8-.64-.789-1.125 0-.258.047-.477.16-.637.305-.453.836-.687 1.602-.687 1.078 0 1.691.347 1.855 1.023h.88c-.29-1.137-1.204-1.719-2.735-1.719-.695 0-1.309.188-1.82.559-.524.371-.79.914-.79 1.656 0 1.008.813 1.703 2.41 2.074zm7.315.813l1.437-3.629 1.426 3.629zm4.89 2.898l-3.453-8.425-3.465 8.425h.88l.847-2.144h3.465l.847 2.144zm3.361-.812v-7.07h-.809v7.882h3.625v-.812zm12.426-3.152a3.14 3.14 0 01-.95 2.296 3.126 3.126 0 01-2.296.95c-.89 0-1.656-.313-2.281-.95-.641-.628-.954-1.39-.954-2.296 0-.88.313-1.645.954-2.286a3.124 3.124 0 012.28-.949c.895 0 1.661.324 2.298.95.625.64.949 1.406.949 2.285zm.812 0a4.053 4.053 0 00-1.195-2.864c-.371-.36-.8-.648-1.285-.855a3.944 3.944 0 00-3.152 0 4.197 4.197 0 00-1.29.855c-.37.371-.66.801-.867 1.29a3.974 3.974 0 00-.312 1.574c0 .558.101 1.09.312 1.578.207.496.496.925.868 1.297a4.001 4.001 0 002.863 1.184c.558 0 1.078-.106 1.578-.313a4.066 4.066 0 002.156-2.168c.207-.489.324-1.02.324-1.578zm3.764-1.844l4.43 6.297v-8.371h-.813v5.796l-4.425-6.296v8.382h.808zM128.78 254.598c0 1.949.07 3.558.218 4.828-1.437-.063-3.867-.094-7.281-.094-4.625 0-8.086.031-10.375.094v-.64c.695-.04 1.21-.126 1.547-.25.332-.126.554-.364.672-.72.113-.363.172-.953.172-1.765V240.27c0-.801-.06-1.38-.172-1.735-.118-.363-.34-.61-.672-.734-.336-.133-.852-.223-1.547-.266v-.625c2.289.063 5.75.094 10.375.094 3.113 0 5.328-.031 6.64-.094a56.506 56.506 0 00-.218 4.703c0 .93.031 1.649.094 2.157h-.72c-.323-2.27-.902-3.86-1.734-4.766-.824-.914-1.984-1.375-3.484-1.375h-1.312c-.657 0-1.137.059-1.438.172a.933.933 0 00-.594.625c-.105.305-.156.793-.156 1.469v7.89h1.016c1.125 0 1.976-.41 2.562-1.234.582-.832.988-1.82 1.219-2.969h.734a43.23 43.23 0 00-.093 2.985v1.53c0 1.087.062 2.59.187 4.516h-.734c-.45-2.789-1.743-4.187-3.875-4.187h-1.016v8.016c0 .68.05 1.171.156 1.484a.92.92 0 00.594.61c.3.105.781.156 1.438.156h1.562c1.5 0 2.711-.508 3.64-1.532.926-1.031 1.579-2.773 1.954-5.234h.734c-.062.7-.094 1.59-.094 2.672zm12.757-17.063c-.773.043-1.336.133-1.687.266-.344.125-.578.371-.703.734-.125.356-.188.934-.188 1.735v16.172c0 .68.051 1.171.156 1.484.102.305.286.508.547.61.27.105.703.156 1.297.156h1.563c1.437 0 2.68-.645 3.734-1.938 1.05-1.29 1.734-3.008 2.047-5.156h.734c-.062.719-.093 1.652-.093 2.797 0 2.043.07 3.718.218 5.03-1.437-.062-3.867-.093-7.28-.093-4.626 0-8.087.031-10.376.094v-.64c.695-.04 1.211-.126 1.547-.25.332-.126.555-.364.672-.72.113-.363.172-.953.172-1.765V240.27c0-.801-.059-1.38-.172-1.735-.117-.363-.34-.61-.672-.734-.336-.133-.852-.223-1.547-.266v-.625c1.082.063 2.758.094 5.031.094 2.164 0 3.832-.031 5-.094zm32.937-.562c.977 0 1.785-.035 2.422-.11v.641c-.969.406-1.984 1.637-3.047 3.688l-3.75 7.453v7.406c0 .812.055 1.402.172 1.766.113.355.328.593.64.718.321.125.845.211 1.563.25v.64c-1.148-.062-2.777-.093-4.89-.093-2.274 0-3.918.031-4.938.094v-.64c.695-.04 1.207-.126 1.531-.25.332-.126.555-.364.672-.72.125-.363.188-.953.188-1.765v-5.375l-6.14-11.36c-.657-1.187-1.274-1.78-1.845-1.78v-.673c.926.118 2.176.172 3.75.172 1.97 0 3.961-.054 5.985-.172v.672c-.742 0-1.328.074-1.766.219-.437.137-.656.383-.656.734 0 .2.07.434.219.704l4.843 9.328 2.485-4.97c.82-1.675 1.234-2.987 1.234-3.937 0-.726-.23-1.25-.687-1.562-.461-.32-1.11-.504-1.953-.547v-.64c1.437.074 2.757.109 3.968.109zm28.538 17.625c0 1.949.07 3.558.218 4.828-1.437-.063-3.867-.094-7.28-.094-4.626 0-8.087.031-10.376.094v-.64c.695-.04 1.211-.126 1.547-.25.332-.126.555-.364.672-.72.113-.363.172-.953.172-1.765V240.27c0-.801-.059-1.38-.172-1.735-.117-.363-.34-.61-.672-.734-.336-.133-.852-.223-1.547-.266v-.625c2.29.063 5.75.094 10.375.094 3.113 0 5.328-.031 6.64-.094a56.506 56.506 0 00-.218 4.703c0 .93.031 1.649.094 2.157h-.719c-.324-2.27-.902-3.86-1.734-4.766-.825-.914-1.985-1.375-3.485-1.375h-1.312c-.656 0-1.137.059-1.438.172a.933.933 0 00-.593.625c-.106.305-.157.793-.157 1.469v7.89h1.016c1.125 0 1.976-.41 2.562-1.234.582-.832.989-1.82 1.22-2.969h.734a43.23 43.23 0 00-.094 2.985v1.53c0 1.087.062 2.59.187 4.516h-.734c-.45-2.789-1.742-4.187-3.875-4.187h-1.016v8.016c0 .68.051 1.171.157 1.484.101.305.3.508.593.61.301.105.782.156 1.438.156h1.562c1.5 0 2.711-.508 3.64-1.532.927-1.031 1.579-2.773 1.954-5.234h.734c-.062.7-.093 1.59-.093 2.672zm12.758-17.063c-.774.043-1.336.133-1.688.266-.344.125-.578.371-.703.734-.125.356-.188.934-.188 1.735v16.172c0 .68.051 1.171.157 1.484.101.305.285.508.547.61.27.105.703.156 1.296.156h1.563c1.437 0 2.68-.645 3.734-1.938 1.051-1.29 1.735-3.008 2.047-5.156h.735c-.063.719-.094 1.652-.094 2.797 0 2.043.07 3.718.219 5.03-1.438-.062-3.868-.093-7.282-.093-4.625 0-8.086.031-10.375.094v-.64c.696-.04 1.211-.126 1.547-.25.332-.126.555-.364.672-.72.113-.363.172-.953.172-1.765V240.27c0-.801-.059-1.38-.172-1.735-.117-.363-.34-.61-.672-.734-.336-.133-.851-.223-1.547-.266v-.625c1.082.063 2.758.094 5.032.094 2.164 0 3.832-.031 5-.094zm19.432 0c-.773.043-1.336.133-1.687.266-.344.125-.578.371-.703.734-.125.356-.188.934-.188 1.735v16.172c0 .68.051 1.171.156 1.484.102.305.286.508.547.61.27.105.703.156 1.297.156h1.563c1.437 0 2.68-.645 3.734-1.938 1.05-1.29 1.734-3.008 2.047-5.156h.734c-.062.719-.093 1.652-.093 2.797 0 2.043.07 3.718.218 5.03-1.437-.062-3.867-.093-7.28-.093-4.626 0-8.087.031-10.376.094v-.64c.695-.04 1.211-.126 1.547-.25.332-.126.555-.364.672-.72.113-.363.172-.953.172-1.765V240.27c0-.801-.059-1.38-.172-1.735-.117-.363-.34-.61-.672-.734-.336-.133-.852-.223-1.547-.266v-.625c1.082.063 2.758.094 5.031.094 2.164 0 3.832-.031 5-.094zm27.761 19.219c.27.7.586 1.21.953 1.531.364.313.711.48 1.047.5v.64a101.811 101.811 0 00-4.828-.093c-2.168 0-3.781.031-4.844.094v-.64c.813-.04 1.383-.141 1.719-.298.344-.156.516-.437.516-.843 0-.383-.133-.895-.391-1.532l-1.906-5.218h-6.938l-.828 2.203c-.594 1.523-.89 2.699-.89 3.531 0 .781.238 1.328.718 1.64.477.305 1.188.477 2.125.516v.64a92.393 92.393 0 00-3.953-.093c-.969 0-1.777.031-2.422.094v-.64c1.04-.188 1.957-1.298 2.75-3.329l7.25-18.625c.227.024.598.031 1.11.031a11.6 11.6 0 001.078-.03zm-7.953-6.484l-3.156-8.594-3.297 8.594zm0 0" fill="#563d37"/></svg>