<svg xmlns="http://www.w3.org/2000/svg" width="500" viewBox="0 0 375 375" height="500" version="1.0"><defs><clipPath id="a"><path d="M71.926 55.184h196.289v187.343H71.925zm0 0"/></clipPath><clipPath id="b"><path d="M252 48.445h50.918v91.282H252zm0 0"/></clipPath></defs><g clip-path="url(#a)"><path fill="#d89d42" d="M183.191 242.57c-8.445 0-17.27-3.273-26.953-9.996-8.273-5.742-15.629-12.918-22.343-19.816-17.415-17.887-33.364-53.625-38.192-67.735-1.7.922-3.71.989-5.715.176-2.949-1.191-5.77-4.148-8.386-8.785-3.165-5.601-5.942-13.555-8.258-23.637-3.684-16.02.73-19.418 2.8-20.132 1.864-.645 4.141-.079 6.415 1.609 2.25 1.66 4.296 4.281 5.765 7.375.88 2.05 2.043 2.941 2.692 2.742.89-.266 1.566-2.527.55-8.012-.457-2.48-.406-3.976.168-4.707.25-.316.586-.488 1-.515 1.032-.063 2.094 1 3.7 2.61 3.238 3.237 8.132 8.136 16.906 8.042l1.597-.02-1.421.731c-.036.02-2.61 1.36-4.567 3.16 2.028-1.46 4.035-2.293 6.367-2.129l1.207.082-1.039.617c-.113.07-.234.141-.359.215-1.492.88-3.277 1.926-4.008 3.782 1.75-2.028 4.195-3.317 6.39-3.258l1.52.039-1.359.676c-1.383.691-2.402 2.207-2.8 3.62 1.784-2.468 4.573-3.84 6.741-3.949l2.434-.12-2.277.855c-1.403.523-2.38 2.305-2.696 4.086 1.45-2.305 2.868-3.735 5.84-4.14l1.79-.243-1.54.941c-.781.477-1.722 2.168-2.164 3.786 1.2-2.043 2.965-3.637 4.781-4.215l1.344-.426-.95 1.043c-.526.578-1.042 1.937-1.28 3.246.859-1.879 2.265-3.594 4.222-3.969l1.297-.25-.969.899c-.992.918-1.437 2.675-1.18 4.328 1.11-2.61 2.083-4.625 4.016-5.164l.918-.254-.496.816c-.781 1.29-1.508 3.07-.96 4.711.769-2.762 1.87-5.422 3.917-6.043l1.11-.34-.696.93c-1.054 1.402-1.164 2.32-.765 3.164.465-2.441 1.59-3.781 3.722-4.523l1.067-.371-.625.937c-.5.754-.63 1.848-.38 3.004a.522.522 0 01.028-.07c.625-1.793 1.34-3.825 3.84-4.29l.793-.144-.39.703c-.626 1.125-1.083 2.078-.973 3.219.011-.031.02-.059.027-.086.738-2.402 1.145-3.727 4.512-4.367l1.457-.278-1.145.942c-.816.668-1.18 1.328-1.312 2.121 1.328-1.648 3.465-2.953 5.777-3.461 1.95-.43 3.793-.25 5.313.504-1.696-3.52-4.29-5.559-8.082-6.379-3.868-.832-8.567-.383-14.004.137-11.5 1.097-25.805 2.465-39.91-8.14l-1.063-.798 1.328.117c5.461.497 15.403-2.91 22.254-5.98 5.613-2.512 11.277-3.707 16.836-3.559 5.05.137 9.844 1.422 13.867 3.72 5.793 3.304 9.59 8.444 10.531 14.202 1.043-1.547 2.004-4.285 2.11-7.62.097-3.099-.516-7.704-3.98-12.036-5.442-6.805-14.477-11.29-24.786-12.305-6.074-.597-12.523-.011-19.176 1.735-7.437 1.957-15.12 5.379-22.836 10.168l-.734.457.16-.848c1.16-6.14 5.524-11.059 12.977-14.605 5.902-2.817 13.719-4.657 22.004-5.188 10.746-.691 20.695.805 28.773 4.332 7.403 3.23 12.977 8.11 15.7 13.738 4.003 8.278 4.12 28.149 4.183 38.829l.023 3.101c.188 16.715-5.058 25.426-8.195 30.633-.27.45-.523.875-.762 1.277-2.64 4.512-2.675 8.477-.086 10.606 1.954 1.601 3.036.836 4.29-.051.93-.66 1.984-1.402 3.359-.871.91.347 1.742.949 2.617 1.59 2.457 1.789 4.777 3.476 8.887-.145 1.578-1.39 2.82-1.973 4.027-1.898 1.645.11 3.125 1.437 4.844 3.402l.445.508-.664.113c-4.965.852-8.41 2.996-10.246 6.375-2.215 4.07-1.516 8.953-.246 11.899l-.695.296c-1.34-3.097-2.07-8.246.273-12.554 1.867-3.438 5.27-5.672 10.117-6.637-1.644-1.8-2.789-2.574-3.879-2.644-.992-.063-2.062.46-3.476 1.707-4.567 4.023-7.363 1.988-9.836.187-.832-.605-1.621-1.18-2.442-1.496-.996-.383-1.757.156-2.648.785-1.25.887-2.813 1.988-5.21.016-2.9-2.383-2.93-6.711-.083-11.57.238-.407.492-.833.766-1.286 3.093-5.136 8.27-13.734 8.086-30.234l-.024-3.106c-.062-10.617-.18-30.382-4.11-38.504-2.64-5.468-8.081-10.214-15.32-13.374-7.964-3.477-17.792-4.954-28.417-4.27-8.192.527-15.91 2.344-21.731 5.113-6.863 3.274-11.023 7.715-12.371 13.211 7.527-4.59 15.02-7.883 22.289-9.793 6.738-1.773 13.277-2.363 19.441-1.758 10.512 1.036 19.735 5.621 25.305 12.586 3.61 4.512 4.246 9.305 4.145 12.532-.114 3.601-1.227 7.054-2.84 8.793l-.563.609-.093-.824c-.653-5.875-4.403-11.172-10.278-14.524-3.918-2.234-8.59-3.488-13.512-3.62-5.445-.153-11 1.027-16.503 3.491-2.372 1.063-13.997 6.09-21.372 6.098 13.543 9.633 27.282 8.32 38.38 7.258 10.89-1.043 19.495-1.863 23.34 7.816l.507 1.274-1.09-.836c-1.496-1.145-3.539-1.508-5.754-1.024-2.62.578-4.992 2.243-6.035 4.243l-.656 1.253-.059-1.414c-.05-1.191.07-2.18.723-3.093-1.79.582-2.082 1.539-2.695 3.539-.125.398-.262.851-.426 1.34l-.324.964-.387-.941c-.695-1.691-.367-2.988.266-4.281-1.415.625-1.915 2.047-2.442 3.543-.129.375-.266.765-.418 1.14l-.355.867-.348-.867c-.547-1.351-.644-2.699-.312-3.793-1.504.801-2.223 2.145-2.485 4.504l-.097.903-.575-.707c-.925-1.145-1.144-2.211-.633-3.446-1.156 1.266-1.875 3.582-2.394 5.63l-.211.827-.469-.715c-1.168-1.757-.789-3.722-.05-5.308-1.11.87-1.84 2.601-2.774 4.816l-.555 1.313-.332-.903c-.62-1.695-.48-3.668.278-5.09-1.621.965-2.762 3.153-3.235 5.2l-.343 1.484-.391-1.473c-.36-1.343.11-3.617.805-5.101-1.77 1-3.364 3.004-4.168 5.312l-.512 1.457-.223-1.523c-.234-1.57.653-4.203 1.77-5.707-2.36.691-3.442 2.371-4.887 4.871l-.64 1.11-.067-1.282c-.09-1.793.559-3.972 1.79-5.312-2.009.644-4.173 2.25-5.329 4.683l-.555 1.184-.164-1.3c-.183-1.532.63-3.72 2.133-5.114-2.02.488-4.086 2.055-5.355 4.172l-.762 1.265.055-1.476c.113-2.864 2.062-4.422 3.84-5.52-2.426.301-4.575 1.832-6.946 4.008l-1.234 1.133.625-1.55c.922-2.282 3.937-4.364 5.652-5.395-8.246-.418-13.098-5.274-16.055-8.239-1.359-1.36-2.43-2.43-3.125-2.39a.575.575 0 00-.445.226c-.289.367-.527 1.38-.02 4.102.954 5.148.563 8.383-1.078 8.879-1.187.359-2.64-.91-3.601-3.16-2.852-6-7.79-9.774-11.242-8.579-3.903 1.356-4.766 8.551-2.309 19.25 2.395 10.434 7.688 28.446 16.191 31.887 1.934.785 3.864.66 5.43-.355l.41-.266.157.465c4.625 13.734 20.656 49.906 38.168 67.89 6.69 6.872 14.015 14.016 22.234 19.727 9.789 6.793 18.668 10.02 27.137 9.852 8.859-.172 17.738-3.801 27.148-11.094 8.074-6.254 15.188-14.195 20.898-20.578l.305-.336c6.953-7.723 13.98-17.66 20.324-28.75 5.766-10.07 10.864-20.856 14.75-31.211-.738-.852-4.015-4.735-7.07-10.043-3.191-5.547-6.797-13.84-5.812-21.813l.75.09c-.957 7.766 2.578 15.887 5.71 21.332 3.415 5.93 7.102 10.059 7.141 10.102l.152.168-.082.215c-3.91 10.457-9.054 21.363-14.878 31.539-6.372 11.129-13.434 21.113-20.422 28.875l-.301.336c-5.734 6.406-12.871 14.379-21 20.672-9.543 7.394-18.574 11.078-27.598 11.25-.21.007-.422.007-.633.007"/></g><path fill="#d89d42" d="M169.918 191.855l.176-.175.207.136c5.922 3.922 12.441 5.141 17.441 3.266 3.613-1.355 6.485-2.25 10.469-1.367 2.45.543 8.68 1.203 12.809-.867-1.672.507-3.477.675-5.106.675-.55 0-1.078-.02-1.582-.05-3.437-.211-7.305-1.121-10.09-2.38a26.708 26.708 0 00-9.433-2.331c-.211.933-.637 1.722-1.356 2.218-4.113 2.848-8.988 1.961-12.18.188l-.52-.29.544-.25c1.812-.835 6.742-2.757 13.023-2.5.438-3.128-1.254-7.855-1.554-8.66-1.395.106-2.825-.573-4.332-1.292-1.934-.922-3.93-1.875-6.16-1.356-2.817.66-6.208 3.59-7.54 4.817-2.812 2.605-11.382 10.039-14.082 10.949l-.629.207c1.754.402 5.665.93 9.57 1.02 5.266.125 8.934-.57 10.325-1.958"/><path fill="#d89d42" d="M172.121 190.926c3.02 1.484 7.328 2.086 10.984-.442.567-.39.91-1.007 1.102-1.754-5.539-.21-9.988 1.305-12.086 2.196m12.793-2.766a27.42 27.42 0 019.578 2.383c5.246 2.363 14.762 3.727 19.278.273-.247-.004-.196.04-.63-.027-1.89-.266-4.312-2.652-7.113-5.406-4.117-4.055-9.23-9.086-14.863-9.086-.07 0-.144 0-.219.004-2.117.05-3.558.957-4.832 1.762-.886.562-1.73 1.093-2.734 1.316.414 1.117 1.96 5.578 1.535 8.781"/><path fill="#d89d42" d="M213.703 191.61c-1.738 1.91-4.59 2.988-8.476 3.214-3.02.176-5.915-.242-7.149-.515-3.82-.848-6.605.02-10.125 1.34-1.61.605-3.371.902-5.21.902-4.024 0-8.442-1.41-12.579-4.098-3.715 3.227-16.71 1.77-20.34.918.203.242.469.543.676.738 1.996 1.91 6.664 6.383 12.793 10.364 7.434 4.824 14.445 7.27 20.855 7.27.211 0 .422-.005.63-.013 8.59-.214 15.87-5.472 20.468-9.851 4.117-3.918 7.32-8.535 8.469-10.277-.004 0-.008.003-.012.007m25.539-94.011l.27.707c-8.317 3.129-16.457 9.367-21.246 16.28l-.621-.433c4.867-7.03 13.144-13.375 21.597-16.554zm-11.699 27.027l-.723-.223c2.028-6.582 7.211-16.949 12.375-22.906l.575.496c-5.102 5.88-10.223 16.125-12.227 22.633zm-16.219-13.902c.168 1.824 1.953 6.722 4.88 11.195 2.546 3.894 6.71 8.656 12.081 9.227 3.871.41 7.16-3.754 9.238-7.325 2.438-4.187 4.29-9.418 5.04-12.738.949-4.203 1.71-10.27 1.015-14.684-.418-2.652-1.312-2.625-3.707-2.558-.39.012-.836.023-1.312.023-.7 0-3.457.176-7.153.637-4.937 1.668-9.785 3.445-13.433 5.668-4.918 2.992-7.028 6.348-6.649 10.555m71.239 3.429l-.625.434c-4.786-6.914-12.922-13.152-21.243-16.281l.27-.707c8.453 3.18 16.726 9.523 21.598 16.554zm-9.903 10.473c-2.004-6.508-7.125-16.754-12.223-22.633l.57-.496c5.169 5.957 10.352 16.324 12.38 22.906zM260.371 93.84a28.09 28.09 0 00-.953-.02c-1.691 0-2.398.309-2.754 2.578-.695 4.415.07 10.477 1.02 14.684.75 3.32 2.597 8.55 5.039 12.738 2.078 3.57 5.363 7.735 9.234 7.325 5.375-.57 9.54-5.333 12.086-9.227 2.926-4.473 4.71-9.371 4.875-11.195.383-4.207-1.73-7.563-6.648-10.555-3.649-2.223-8.497-4-13.434-5.668-3.695-.46-6.453-.637-7.152-.637-.473 0-.918-.011-1.313-.023m-10.168-4.75c-.465 0-.898-.168-1.258-.453-1.238 4.531-1.87 13.054-1.61 21.828.263 8.754 1.321 15.574 2.786 18.035 1.145-1.922 2.043-6.504 2.508-12.59.074-.797.223-3.59.277-5.445.262-8.711-.36-17.172-1.582-21.727a1.98 1.98 0 01-1.12.352m-10.556-6.281l-.543.527c-8.238-8.371-18.386-15.137-24.156-17.492l.29-.7c4.558 1.86 9.515 5.227 12.87 7.723 4.16 3.094 8.368 6.715 11.54 9.942zm-.308 3.789c-10.86-4.485-21.094-4.293-24.985-4-.19.015-.273.023-.324.023v-.762c.04 0 .13-.004.266-.015 3.95-.297 14.32-.492 25.332 4.058zm-14.453-23.364c-8.008-6.156-12.653-6.91-14.438-6.91-.066 0-.133 0-.191.004-1.235.04-2.117.434-2.567 1.137-1.254 1.98.063 4.242 1.586 6.86.75 1.288 1.524 2.62 2.028 4.007 2.144 5.906.61 8.727-.875 11.453-.422.774-.856 1.57-1.192 2.426-.945 2.394-.808 4.3.399 5.668 2.187 2.473 7.996 3.39 16.793 2.648 6.746-.566 14.093-2.011 18.894-3.218-.469-1.02-1.82-3.88-3.87-7.606-5.653-6.8-11.282-12.402-16.567-16.469m47.207 9.633c3.36-2.496 8.312-5.863 12.875-7.722l.285.699c-5.766 2.355-15.918 9.12-24.156 17.492l-.54-.527c3.172-3.227 7.38-6.848 11.536-9.942zm14.078 8.992v.762c-.05 0-.129-.008-.32-.023-3.895-.293-14.125-.485-24.985 4l-.289-.696c11.008-4.55 21.383-4.355 25.332-4.058.137.011.227.015.262.015zm-12.36 8.668c8.801.743 14.606-.175 16.793-2.648 1.211-1.367 1.344-3.274.399-5.668-.336-.856-.77-1.652-1.192-2.426-1.48-2.726-3.015-5.547-.87-11.453.5-1.387 1.273-2.719 2.023-4.008 1.527-2.617 2.84-4.879 1.59-6.86-.45-.702-1.336-1.097-2.567-1.136-1.633-.055-6.316.512-14.633 6.906-5.285 4.067-10.914 9.668-16.566 16.47a125.768 125.768 0 00-3.871 7.605c4.805 1.207 12.148 2.652 18.894 3.218"/><g clip-path="url(#b)"><path fill="#d89d42" d="M253.664 110.488a116.593 116.593 0 01-.27 5.309c1.051 2.605 8.766 21.242 15.391 23.531 2.383.82 5.938-.234 10.008-2.969 3.918-2.632 7.965-6.629 11.11-10.964 2.96-4.086 4.968-8.223 5.804-11.961.945-4.243.371-7.782-1.715-10.52-2.199-2.89-8.12-5.355-17.129-7.133-1.414-.277-2.804-.52-4.136-.73 3.668 1.324 7.14 2.765 9.937 4.472 5.121 3.118 7.414 6.805 7.008 11.27-.336 3.707-7.047 19.98-17.633 21.105a6.13 6.13 0 01-.605.032c-3.188 0-6.41-2.657-9.368-7.727-2.48-4.262-4.359-9.578-5.12-12.957-.966-4.273-1.743-10.445-1.028-14.965.52-3.312 2.008-3.27 4.477-3.199.406.012.828.023 1.289.023.511 0 1.847.079 3.718.254-2.656-.879-5.386-1.789-7.93-2.746l-3.199-1.207 3.387.477c3.352.472 6.406.965 9.367 1.445 7.137 1.152 13.297 2.149 19.582 2.149 6.344 0 10.223-1.649 11.528-4.899 1.312-3.258.308-6.539-.664-9.71-.371-1.208-.75-2.458-1.004-3.692-1.067-5.258-.215-8.953 2.926-12.758 2.835-3.426 3.968-6.383 3.367-8.785-.64-2.563-3.13-3.703-3.625-3.91-5.29-2.18-10.903-1.567-16.68 1.824-4.664 2.738-9.445 7.277-14.21 13.492-2.876 3.742-5.395 7.66-7.458 11.156 4.816-5.492 9.582-10.082 14.106-13.558 5.992-4.61 11.5-7.188 15.117-7.067 1.496.047 2.593.567 3.18 1.492 1.5 2.368.007 4.93-1.57 7.645-.731 1.258-1.49 2.559-1.97 3.883-2.027 5.586-.64 8.137.828 10.836.43.793.875 1.61 1.23 2.508 1.056 2.68.876 4.847-.534 6.445-2.387 2.7-8.25 3.676-17.426 2.902-7-.586-14.64-2.117-19.457-3.347l-.434-.11.18-.41c.02-.047.816-1.836 2.25-4.629a176.142 176.142 0 00-4.266 5.625c1.282 4.653 1.91 13.082 1.641 22.078"/></g><path fill="#d89d42" d="M250.203 88.484c.922 0 1.668-.941 1.668-2.093 0-1.157-.746-2.098-1.668-2.098-.918 0-1.668.941-1.668 2.098 0 1.152.75 2.093 1.668 2.093m-3.996-1.07l.18.41-.434.11c-4.816 1.23-12.457 2.761-19.46 3.347-9.177.774-15.04-.203-17.423-2.902-1.414-1.598-1.593-3.766-.539-6.445.356-.899.801-1.715 1.23-2.508 1.47-2.7 2.86-5.25.833-10.836-.485-1.324-1.239-2.625-1.973-3.883-1.578-2.715-3.07-5.277-1.57-7.644.586-.926 1.687-1.446 3.183-1.493 3.614-.117 9.121 2.457 15.118 7.067 4.52 3.476 9.289 8.066 14.105 13.558-2.066-3.504-4.59-7.418-7.465-11.168-4.765-6.21-9.547-10.746-14.21-13.48-5.774-3.39-11.384-4.004-16.677-1.824-.492.207-2.984 1.347-3.625 3.91-.601 2.402.532 5.36 3.368 8.785 3.144 3.805 3.992 7.5 2.925 12.758-.25 1.234-.636 2.484-1.003 3.691-1.977 6.453-1.31 8.11-.665 9.711 1.305 3.25 5.184 4.899 11.532 4.899 6.281 0 12.445-.997 19.578-2.149 2.957-.48 6.02-.973 9.367-1.445l3.387-.477-3.2 1.207c-2.542.957-5.269 1.867-7.925 2.746 1.867-.175 3.207-.254 3.715-.254.464 0 .886-.011 1.293-.023 2.464-.07 3.957-.113 4.476 3.2.711 4.519-.062 10.69-1.027 14.964-.766 3.379-2.645 8.695-5.125 12.957-3.14 5.395-6.59 8.055-9.973 7.695-10.582-1.125-17.297-17.398-17.633-21.105-.406-4.465 1.887-8.152 7.008-11.27 2.8-1.707 6.27-3.148 9.942-4.472-1.333.21-2.727.453-4.141.73-9.004 1.778-14.93 4.242-17.129 7.133-2.148 2.824-2.691 6.512-1.605 10.953.953 3.906 3.128 8.195 6.296 12.403 3.16 4.199 7.133 8.007 10.895 10.457 3.922 2.554 7.34 3.48 9.613 2.605 5.301-2.047 14.024-19.375 15.383-23.734-.113-1.606-.2-3.313-.254-5.11-.266-8.996.36-17.425 1.64-22.078a177.33 177.33 0 00-4.265-5.62c1.434 2.788 2.234 4.577 2.254 4.624m2.145-4.668c-.735-5.398-2.293-13.531-4.47-20.172-1.894-5.773-4.964-12.554-8.862-12.078l-.094-.75c3.535-.437 6.793 3.8 9.676 12.594 2.191 6.687 3.761 14.875 4.5 20.305l-.75.101m3.288 0l-.75-.101c.739-5.43 2.305-13.618 4.497-20.305 2.883-8.793 6.136-13.031 9.68-12.594l-.094.75c-3.899-.48-6.973 6.305-8.864 12.078-2.175 6.64-3.738 14.774-4.468 20.172M46.156 280.45c3.524-4.594 6.516-10.184 7.281-15.95.055-.359-.765-.644-.906-.284-1.871 4.503-3.598 8.898-6.48 12.886-2.567 3.563-5.825 7.246-9.828 9.207-2.157 1.051-4.63 1.512-6.891.535-2.367-1.015-4.094-3.242-5.11-5.554-1.96-4.418-1.996-9.778-1.105-14.457.945-4.864 3.117-9.332 6.25-13.16 1.316-1.618 2.793-3.098 4.309-4.555 1.316-1.3 2.312-2.691 1.636-4.594-.64-1.746-2.117-2.957-1.941-4.824 2.086.086 4.184.266 6.27.281 2.261.04 5.285.18 7.28-1.101 1.477-.946 2.102-2.903.942-4.344-1.281-1.586-3.789-2.156-5.715-2.317-4.183-.335-9.808 1.852-10.824 6.395-2.348 0-4.664.176-6.96.906-3.934 1.266-7.263 4.254-7.782 8.512-.016.195.465.371.535.16 1.852-5.805 7.39-8.316 13.106-8.531.335 0 .656-.016.996-.016.015 1.797 1.21 3.028 2.047 4.645.835 1.64.07 2.707-1.106 3.867a78.126 78.126 0 00-3.168 3.273c-3.648 4.043-6.336 8.778-7.512 14.118-1.14 5.074-1.21 10.843.871 15.703 1.727 4.062 5.325 7.496 9.918 7.71 5.786.286 10.63-4.253 13.887-8.511zm-7.851-46.059c2.207-.87 4.968-1.011 7.156 0 1.851.875 1.246 2.852-.285 3.618-1.352.691-3.188.765-4.664.816-2.297.11-4.594-.07-6.907-.16.766-2.047 2.743-3.508 4.7-4.274zm37.38 50.352c2.778-.625 6.286-.91 9.043-.11.875.25.75-.8-.015-.94-2.172-.446-4.184-.962-6.426-.821-2.05.105-4.078.515-6.02 1.195a21.111 21.111 0 00-5.644 3.024c-.41.304-.781.66-1.192.96-.8.59-1.46 1.106-1.996-.015-.656-1.39-.765-3.258-.746-4.774.09-5.48 1.032-11.054 1.852-16.484.89-5.805 1.941-11.59 3.062-17.36 1.227-6.355 2.598-12.675 3.864-19.03.09-.43-.82-.766-.91-.356-2.704 11.875-5.16 23.84-7.032 35.875-.926 5.89-2.137 12.035-2.207 17.996-.02 1.977-.3 5.024 1.852 6.055 1.797.855 3.328-.446 4.699-1.512a19.925 19.925 0 017.816-3.703zm87.45-14.066c-1.371.75-2.102.87-3.242 1.796.035-4.359-.14-8.703-.551-13.046-.125-1.372-1.316-13.141-4.043-10.989-.746.57-.977 2.012-1.316 2.852-.551 1.422-1.141 2.847-1.692 4.273-1.12 2.848-2.262 5.696-3.558 8.453-1.446 3.063-3.172 6.02-5.36 8.602 0 0-.57.766-.715.8-.691.126-.53-.39-.605-.906-.106-.964-.14-1.941-.176-2.921-.07-1.832-.055-3.668-.02-5.5.075-3.778.286-7.551.18-11.344-.09-2.653.176-6.48-2.172-8.297-.285-.23-1.105-.566-1.3-.035-.641 1.676-1.352 3.312-1.797 5.039-.41 1.601-.535 3.207-.696 4.824-.16 1.516-1.066 6.02 1.872 5.395.925-.176.265-1.137-.536-1.332-.48-.75-.48-2.618-.535-3.313-.105-1.21.07-2.387.34-3.578.41-1.906 1.05-3.793 2.137-5.414.926 2.082.73 4.808.781 6.96.055 3.028-.07 6.056-.14 9.083-.09 2.918-.126 5.82.07 8.742.105 1.582.105 3.863 2.066 4.309 1.957.441 2.902-1.746 3.719-3.137 1.355-2.277 2.512-4.664 3.562-7.086 1.086-2.438 2.028-4.95 2.973-7.441.926-2.422 1.637-5.25 2.973-7.477.23-.375.125-.516.605-.71.695-.27.25-.09.57.37.356.5.426 1.39.586 1.977.375 1.515.606 3.047.786 4.593.335 2.903.46 5.86.515 8.778.07 2.847.055 5.7-.055 8.547-3.773 2.793-6.94 6.375-9.113 10.644-2.262 4.453-4.113 10.88-1.496 15.578.8 1.426 2.242 2.532 3.953 2.262 2.153-.336 3.399-2.582 4.235-4.36 2.566-5.554 3.242-11.804 3.668-17.84.144-2.206.234-4.417.27-6.624 3.632-2.617 1.976-1.512 3.362-2.383.125-.039-.015-.16-.105-.144zm-5.45 12.375c-.32 2.917-.695 5.84-1.406 8.687-.64 2.563-1.386 5.555-2.972 7.707-1.016 1.39-2.602 2.316-4.094.856-1.07-1.032-1.39-2.954-1.566-4.325-.36-2.886.246-5.84 1.207-8.566 1.836-5.145 5.234-9.578 9.472-13.012a139.158 139.158 0 01-.64 8.653zm97.935-2.602c3.523-4.594 6.516-10.184 7.281-15.95.055-.359-.765-.644-.906-.284-1.871 4.503-3.598 8.898-6.48 12.886-2.567 3.563-5.825 7.246-9.829 9.207-2.156 1.051-4.629 1.512-6.89.535-2.367-1.015-4.094-3.242-5.11-5.554-1.96-4.418-1.996-9.778-1.105-14.457.945-4.864 3.117-9.332 6.25-13.16 1.316-1.618 2.793-3.098 4.308-4.555 1.317-1.3 2.313-2.691 1.637-4.594-.64-1.746-2.117-2.957-1.941-4.824 2.086.086 4.183.266 6.27.281 2.261.04 5.284.18 7.28-1.101 1.477-.946 2.102-2.903.942-4.344-1.281-1.586-3.79-2.156-5.715-2.317-4.183-.335-9.808 1.852-10.824 6.395-2.348 0-4.664.176-6.961.906-3.934 1.266-7.262 4.254-7.781 8.512-.016.195.465.371.535.16 1.851-5.805 7.39-8.316 13.105-8.531.336 0 .657-.016.996-.016.016 1.797 1.211 3.028 2.047 4.645.836 1.64.07 2.707-1.105 3.867a78.126 78.126 0 00-3.168 3.273c-3.649 4.043-6.336 8.778-7.512 14.118-1.14 5.074-1.21 10.843.871 15.703 1.727 4.062 5.324 7.496 9.918 7.71 5.785.286 10.63-4.253 13.887-8.511zm-7.852-46.059c2.207-.87 4.97-1.011 7.157 0 1.851.875 1.246 2.852-.286 3.618-1.351.691-3.187.765-4.664.816-2.296.11-4.593-.07-6.906-.16.766-2.047 2.742-3.508 4.7-4.274zm37.382 50.352c2.776-.625 6.284-.91 9.042-.11.875.25.75-.8-.016-.94-2.171-.446-4.183-.962-6.425-.821a21.565 21.565 0 00-6.02 1.195 21.111 21.111 0 00-5.644 3.024c-.41.304-.782.66-1.192.96-.8.59-1.46 1.106-1.996-.015-.656-1.39-.765-3.258-.746-4.774.09-5.48 1.031-11.054 1.852-16.484.89-5.805 1.941-11.59 3.062-17.36 1.227-6.355 2.598-12.675 3.863-19.03.09-.43-.82-.766-.91-.356-2.703 11.875-5.16 23.84-7.031 35.875-.926 5.89-2.137 12.035-2.207 17.996-.02 1.977-.3 5.024 1.852 6.055 1.796.855 3.328-.446 4.699-1.512a19.925 19.925 0 017.816-3.703zm0 0"/><path d="M306.332 284.743c2.777-.625 6.285-.91 9.043-.11.875.25.75-.8-.016-.94-2.172-.446-4.183-.962-6.425-.821a21.558 21.558 0 00-6.02 1.195 21.111 21.111 0 00-5.645 3.024c-.41.304-.78.66-1.19.96-.802.59-1.462 1.106-1.997-.015-.656-1.39-.766-3.258-.746-4.774.09-5.48 1.031-11.054 1.851-16.484.891-5.805 1.942-11.59 3.063-17.36 1.226-6.355 2.598-12.675 3.863-19.03.09-.43-.82-.766-.91-.356-2.703 11.875-5.16 23.84-7.031 35.875-.926 5.89-2.137 12.035-2.207 17.996-.02 1.977-.301 5.024 1.851 6.055 1.797.855 3.328-.446 4.7-1.512a19.925 19.925 0 017.816-3.703zm0 0" fill="#d89d42"/><path d="M347.066 267.169c-.43 5.539-2.051 11.254-4.774 16.078-.55.96-1.691 3.453-3.027 3.168-1.317-.266-1.336-2.903-1.406-4.078-.176-3.024-.07-6.086-.055-9.098.055-5.84.25-11.676.59-17.5.035-.176.09-.336.14-.516a161.151 161.151 0 002.137-8.847c.59-2.813.961-5.574.305-8.407-.16-.675-1.461-1.011-1.836-.39-.996 1.746-1.531 3.703-1.852 5.75-.64-2.277-1.531-4.469-2.902-6.356-2.508-3.453-6.656-3.668-9.879-.996-3.723 3.098-5.645 8.297-7.316 12.676a76.7 76.7 0 00-3.954 14.902c-.875 5.305-1.265 10.754-.945 16.114.145 2.472.48 4.949 1.281 7.297.606 1.765 1.426 3.847 3.047 4.898 3.739 2.438 7.547-2.316 9.348-5.074 2.812-4.309 4.77-9.293 6.691-14.047a152.738 152.738 0 003.473-9.563c-.07 2.122-.125 4.239-.18 6.356-.05 2.867-.07 5.715-.05 8.582 0 2.492-.18 5.27.765 7.64.516 1.282 1.742 2.438 3.238 2.083 1.926-.465 2.672-2.922 3.418-4.47 2.457-5.109 3.703-10.487 4.098-16.112.016-.16-.34-.266-.355-.09zm-10.399-14.723c-.07.926-.11 1.832-.16 2.758a185.493 185.493 0 01-3.047 9.758 163.9 163.9 0 01-4.95 12.5c-1.69 3.789-3.362 7.867-6.194 10.965-1.477 1.601-4.149 3.953-5.766 1.23-1.176-2.012-1.766-4.434-2.102-6.695-.605-4.344-.445-8.868-.054-13.227.785-8.851 3.082-17.594 6.87-25.64 1.516-3.204 6.446-11.946 10.9-7.532 1.616 1.606 2.542 4.114 3.308 6.2.605 1.636 1.125 3.273 1.406 4.949-.086 1.617-.121 3.222-.21 4.734zM139.66 319.652c1.259-.277 2.11-1.145 2.11-2.18 0-1.59-1.941-1.941-4.203-1.941h-4.16v.07c.57.07 1.059.227 1.059.727v7.906c0 .5-.489.793-1.059 1.004v.07h4.719c2.625 0 4.566-1.23 4.566-3.183 0-1.536-1.242-2.29-3.031-2.473zm-2.163-3.895c1.719 0 2.402 1.047 2.402 2.371 0 1.286-.64 1.48-1.394 1.48h-2.125v-3.85zm.77 9.328c-.657 0-1.215-.113-1.887-.32v-4.918h1.453c2.625 0 2.96 1.453 2.96 2.82 0 2.067-.726 2.418-2.527 2.418zm13.833-2.75c-1.148 1.872-2.027 2.75-3.828 2.75h-1.843v-4.554h1.172c1.734 0 2.39.379 2.726 1.648v-3.531c-.336 1.285-.992 1.66-2.726 1.66h-1.172v-4.55h1.761c1.801 0 2.344.695 3.407 2.261l.054-.027-.515-2.461h-7.68v.07c.57.07 1.059.227 1.059.727v7.906c0 .5-.489.793-1.059 1.004v.07h7.398l.477.309.082-.309.742-2.945zm10.189 1.215l-2.946-7.445c-.297-.727-.324-.895-.324-.977l-1.648.88-.262.152.027.406-3.058 7.05c-.52 1.204-.852 1.47-1.438 1.637v.055h2.567v-.055c-.782-.168-1.34-.421-.825-1.62l.309-.7h5.336l.277.7c.489 1.23-.07 1.535-1.047 1.62v.055h4.414v-.055c-.628-.085-.878-.421-1.382-1.703zm-7.5-.867l2.668-6.16 2.472 6.16zm14.475 2.82c2.152 0 3.757-1.367 3.757-3.925v-4.106c0-1.66.489-1.812 1.059-1.883v-.07h-2.555v.07c.715.07 1.203.5 1.203 2.164v3.993c0 2.332-1.675 3.254-2.976 3.254-1.074 0-2.625-.63-2.625-3.223v-5.45c0-.5.488-.656 1.062-.726v-.07h-4.035v.07c.57.07 1.059.227 1.059.727v5.28c0 3.212 2.527 3.895 4.05 3.895zm14.767-9.973h-9.144l-.461 2.88h.055c.797-1.887 1.632-2.653 3.714-2.668v8.629c0 .644-.488.797-1.34.867v.07h4.594v-.07c-.851-.07-1.34-.223-1.34-.867v-8.63h.532c1.562 0 2.625.77 2.441 2.669h.059zm8.081 0v.06c.91.14 1.399.363.797 1.355l-2.348 3.922-2.582-4.063-.754-1.273h-2.847v.058c.46.082.949.403 1.48 1.215l2.957 4.61v3.097c0 .504-.488.657-1.199.727v.07h4.316v-.07c-.714-.07-1.203-.223-1.203-.727v-3.379l2.528-4.175c.601-.977 1.175-1.2 1.941-1.368v-.058zm16.568 3.942c-1.464-.336-2.722-.77-2.722-2.234 0-.785.351-1.692 1.676-1.692 1.539 0 3.101 1.188 2.851 3.102l1.324-2.04c-.738-.714-1.898-1.273-3.52-1.273-2.245 0-3.714 1.063-3.714 2.782 0 1.199.742 2.61 3.45 3.238 1.663.39 2.597.742 2.597 1.984 0 .739-.332 1.942-1.969 1.942-1.578 0-3.226-1.203-3.043-3.13l-1.285 2.04c.754.727 2.082 1.312 3.77 1.312 2.457 0 3.882-1.312 3.882-3.015 0-1.035-.543-2.387-3.297-3.016zm13.781 4.078l-2.945-7.445c-.297-.727-.325-.895-.325-.977l-1.648.88-.262.152.028.406-3.059 7.05c-.52 1.204-.851 1.47-1.437 1.637v.055h2.566v-.055c-.781-.168-1.34-.421-.824-1.62l.308-.7h5.336l.278.7c.488 1.23-.07 1.535-1.047 1.62v.055h4.414v-.055c-.63-.085-.88-.421-1.383-1.703zm-7.5-.867l2.668-6.16 2.473 6.16zm17.701-.25c-1.257 1.676-1.925 2.652-4.289 2.652H227.3v-8.757c0-.5.488-.657 1.203-.727v-.07h-4.175v.07c.57.07 1.058.227 1.058.727v7.418c0 .738-.488 1.28-1.058 1.492v.07h7.105l.477.309.082-.309.726-2.848zm6.28-7.098c-3.047 0-5.39 1.942-5.39 5.086 0 3.141 2.343 5.082 5.39 5.082 3.031 0 5.375-1.941 5.375-5.082 0-3.144-2.344-5.086-5.375-5.086zm.586 9.918c-2.316 0-3.953-2.976-3.953-5.77 0-2.315 1.09-3.894 2.765-3.894 2.32 0 3.954 2.973 3.954 5.754 0 2.317-1.09 3.91-2.766 3.91zm13.079-9.723v.071c.57.07 1.059.504 1.059 2.402v4.442l-5.36-6.324c-.195-.293-.335-.45-.421-.59h-2.805c.445.226.797.547 1.27 1.105v6.48c0 1.9-.489 2.052-1.063 2.122v.07h2.402v-.07c-.57-.07-1.058-.504-1.058-2.403v-5.863l7.344 8.727.027-.028c-.027-.503-.07-1.23-.07-2.68v-5.265c0-1.898.488-2.055 1.062-2.125v-.07zm0 0" fill="#d89d42"/></svg>